<svg width="30" height="36" viewBox="0 0 30 36" fill="none" xmlns="http://www.w3.org/2000/svg">
<path fill-rule="evenodd" clip-rule="evenodd" d="M29.4001 3.46692C29.4001 4.88465 28.2891 6.03394 26.9187 6.03394C25.5482 6.03394 24.4373 4.88465 24.4373 3.46692C24.4373 2.0492 25.5482 0.899902 26.9187 0.899902C28.2891 0.899902 29.4001 2.0492 29.4001 3.46692ZM24.9453 8.4999C24.9453 8.24315 25.1465 8.03501 25.3947 8.03501H28.4232C28.6713 8.03501 28.8726 8.24315 28.8726 8.4999V26.6308C28.8726 26.8875 28.6713 27.0956 28.4232 27.0956H25.3947C25.1465 27.0956 24.9453 26.8875 24.9453 26.6308V8.4999ZM22.6593 17.5552C22.6593 22.8131 18.5391 27.0754 13.4565 27.0754C11.4596 27.0754 9.61124 26.4174 8.10295 25.2996V34.5542C8.10295 34.8556 7.86677 35.0999 7.5754 35.0999H4.72276C4.43139 35.0999 4.19521 34.8556 4.19521 34.5542V14.6244C4.18617 13.8134 3.55742 12.2655 1.20021 12.0918C0.872284 12.0676 0.600098 11.7985 0.600098 11.4584V8.628C0.600098 8.29826 0.855245 8.02725 1.17382 8.03825C3.60432 8.12217 5.61944 9.10602 6.85232 10.9252C8.52477 9.14266 10.8656 8.03501 13.4565 8.03501C18.5391 8.03501 22.6593 12.2973 22.6593 17.5552ZM8.24544 17.5552C8.24544 20.5325 10.5785 22.9461 13.4565 22.9461C16.3345 22.9461 18.6676 20.5325 18.6676 17.5552C18.6676 14.5779 16.3345 12.1643 13.4565 12.1643C10.5785 12.1643 8.24544 14.5779 8.24544 17.5552Z" fill="#21CE99"/>
</svg>
