<?xml version="1.0" encoding="utf-8"?>
<!-- Generator: Adobe Illustrator 26.5.0, SVG Export Plug-In . SVG Version: 6.00 Build 0)  -->
<svg version="1.1" id="Layer_1" xmlns="http://www.w3.org/2000/svg" xmlns:xlink="http://www.w3.org/1999/xlink" x="0px" y="0px"
	 viewBox="0 0 968 250" style="enable-background:new 0 0 968 250;" xml:space="preserve">
<style type="text/css">
	.st0{fill:url(#SVGID_1_);}
	.st1{fill:url(#SVGID_00000046328110366297471500000016470125025250089388_);}
	.st2{fill:url(#SVGID_00000168083133178883118590000004137028853456226723_);}
	.st3{fill:url(#SVGID_00000085246321454764957320000000076487990880275081_);}
	.st4{fill:url(#SVGID_00000080190175066387694310000013992932076140361149_);}
	.st5{fill:url(#SVGID_00000002384438320544811760000003063719657858671767_);}
	.st6{fill:none;stroke:#808184;stroke-miterlimit:10;}
	.st7{fill:#ED174C;}
</style>
<g>
	<g>
		<g>
			<g>
				
					<linearGradient id="SVGID_1_" gradientUnits="userSpaceOnUse" x1="264.7696" y1="214.527" x2="110.9283" y2="63.1669" gradientTransform="matrix(1 0 0 -1 0 251.6377)">
					<stop  offset="0" style="stop-color:#FAE1D6"/>
					<stop  offset="0" style="stop-color:#F7CDBB"/>
					<stop  offset="0.5" style="stop-color:#DF2328"/>
					<stop  offset="1" style="stop-color:#86191A"/>
				</linearGradient>
				<path class="st0" d="M250.5,83.4c-5.6-2.8-11.7-4.9-18.1-6.4c-6.4-1.4-13.3-2.2-20.3-2.2c-6.2,0-12.3,0.6-18.2,1.8
					c-5.9,1.2-11.5,3-16.8,5.3s-10.1,5.2-14.6,8.6c-4.4,3.4-8.3,7.3-11.6,11.6l-0.2,0.3c-3.7,4.7-5.6,8.4-5.9,11.2
					c-0.5,5,1.1,9.8,4.4,13.4c3.2,3.5,7.9,5.7,12.5,5.7c2.3,0,4.4-0.5,6.5-1.4c2.1-8.2,15.8-55.3,66.1-50.5
					c10.1,0.9,18.7,4.1,25.9,8.6C257.2,87.1,253.9,85.1,250.5,83.4z"/>
				
					<linearGradient id="SVGID_00000114059585103649908670000017522217814435276965_" gradientUnits="userSpaceOnUse" x1="187.5021" y1="215.3948" x2="313.2219" y2="-79.8813" gradientTransform="matrix(1 0 0 -1 0 251.6377)">
					<stop  offset="0" style="stop-color:#FAE1D6"/>
					<stop  offset="0" style="stop-color:#F7CDBB"/>
					<stop  offset="0.5" style="stop-color:#DF2328"/>
					<stop  offset="1" style="stop-color:#86191A"/>
				</linearGradient>
				<path style="fill:url(#SVGID_00000114059585103649908670000017522217814435276965_);" d="M279.5,109.8
					c-7.3-11.4-13.8-16.2-13.8-16.2c-1.7-1.6-3.6-3-5.5-4.4c-7.2-4.6-15.8-7.6-25.9-8.5c-50.3-4.8-64,42.4-66.1,50.6
					c0.3-0.1,0.6-0.2,0.8-0.4l0.1,0c0.5-0.3,1.6-1.4,4.2-3.9c14.9-14.4,37.3-23.4,57.2-14.5c8.2,3.6,14.8,10.3,18.5,18.6
					c2.1,4.6,3,8.3,3,14c0,5.3-0.7,10.2-2,14.5c-0.9,2.8-2,5.5-3.4,7.8c-0.7,1.2-1.5,2.4-2.3,3.4c-2.4,3.2-5.4,5.8-8.8,7.8
					c-3.4,2-7.2,3.4-11.4,4.1l-0.2,0l-0.1-0.2c-1.4-3.5-13.8-34.5-14.7-36.4c-0.2-0.4-0.3-0.7-0.5-1.1c-0.1-0.3-0.3-0.6-0.4-0.9
					c2.6,10.3,5.7,26,5,39.2c-1.9,32.5-9.4,35-9.4,35s0.3,0.1,0.8,0.2c2.4,0.7,9.9,2.4,19.8,1.9c13.7-0.7,32-5.7,48.1-23.7
					C291.5,175.8,294.8,136.9,279.5,109.8z"/>
			</g>
			
				<linearGradient id="SVGID_00000163050349930994569360000016940833938470785152_" gradientUnits="userSpaceOnUse" x1="225.0057" y1="51.3965" x2="132.9748" y2="143.9118" gradientTransform="matrix(1 0 0 -1 0 251.6377)">
				<stop  offset="0" style="stop-color:#FAE1D6"/>
				<stop  offset="0" style="stop-color:#F7CDBB"/>
				<stop  offset="0.5" style="stop-color:#DF2328"/>
				<stop  offset="1" style="stop-color:#86191A"/>
			</linearGradient>
			<path style="fill:url(#SVGID_00000163050349930994569360000016940833938470785152_);" d="M208.4,144.3c-0.8-1.3-2-1.3-4.9-1.3
				l-27.7,0.2c-2.5,0-4.9,0.7-6.9,2.1c-5.5,2.8-9.2,8.5-9.2,15.1c0,9,6.4,15.8,15.2,16.5c0.7,0.1,1.4,0.2,2.2,0.2l11.3-0.1l0.1,0.1
				c0.2,0.6,5,11.2,15.2,40.2l0.4,1.1c0,0,7.5-2.5,9.4-35C214.1,170.3,211,154.6,208.4,144.3z"/>
		</g>
		<g>
			<g>
				
					<linearGradient id="SVGID_00000152980684422462480140000012804201620443383182_" gradientUnits="userSpaceOnUse" x1="32.4734" y1="240.787" x2="151.5764" y2="77.0204" gradientTransform="matrix(1 0 0 -1 0 251.6377)">
					<stop  offset="0" style="stop-color:#FAE1D6"/>
					<stop  offset="8.600000e-02" style="stop-color:#F7CDBB"/>
					<stop  offset="0.4653" style="stop-color:#DF2328"/>
					<stop  offset="1" style="stop-color:#86191A"/>
				</linearGradient>
				<path style="fill:url(#SVGID_00000152980684422462480140000012804201620443383182_);" d="M118.1,183.8
					c-2.4-3.2-4.7-7.8-4.9-16.2c-0.5-23.9-0.2-87.4-0.1-94.6c0-0.5-0.2-2.4-0.2-2.4c0-10.5-2.8-19.1-10.8-27.5
					c-1.9-2.1-5-4.4-7.4-6.2c-13.2-5.6-24.6-5.7-35.2-2.4c-9.4,2.9-17,8.4-22,14.9c-3.9,5.2-6.1,11-5.9,16.8
					c0.4,12.6,7.9,19,15.1,22.3c4.7,2.1,9.2,2.9,11.4,3.2c-1.8-0.4-4.1-1.4-6.2-2.5c-4.5-2.3-7.4-7-7.4-12c0,0,0-0.1,0-0.1
					c0-5.7,4.4-12.2,11.4-15c17-7.2,48.8,5.6,51.8,42.6c2.9,36.6,3.2,59.6,6.3,70.7c1.1,4.1,2.6,7,4.4,9
					C118.3,184.1,118.2,184,118.1,183.8z"/>
				
					<linearGradient id="SVGID_00000006670728377899842690000002643959877406493070_" gradientUnits="userSpaceOnUse" x1="25.1294" y1="270.5681" x2="89.5973" y2="79.0981" gradientTransform="matrix(1 0 0 -1 0 251.6377)">
					<stop  offset="0" style="stop-color:#FAE1D6"/>
					<stop  offset="0" style="stop-color:#F7CDBB"/>
					<stop  offset="0.5" style="stop-color:#DF2328"/>
					<stop  offset="1" style="stop-color:#86191A"/>
				</linearGradient>
				<path style="fill:url(#SVGID_00000006670728377899842690000002643959877406493070_);" d="M59.5,34.5c10.6-3.2,22.1-3.2,35.3,2.4
					c-2.4-1.8-5.1-3.5-7.8-4.8c-5.1-2.5-13.5-4.8-20.6-5.3c-0.9-0.1-2.9,0-3.6,0c-5.7,0-10.4,0.8-15.6,2.4
					c-4.4,1.4-8.6,3.3-12.4,5.7c-8.3,5.2-14.9,12.6-19.2,21.3c-3.2,6.6-5.7,14-5.7,21.8c0,16.5,6.8,29.7,17.3,37.7
					c0.9,0.7,1.8,1.3,2.8,1.9v0c4.4,2.8,9.4,4.9,15,6.2c1.3,0.3,3.3,0.6,5.6,0.8c1.2,0.1,2.5,0.2,3.9,0.3c0.3,0,0.5,0,0.8,0
					c3.4,0.1,6.7-1,9.3-2.8c4-2.8,6.7-7.4,6.7-12.8l0-2.2c0-5.5-2.7-10.4-7.1-13.3c-1.7-1.1-3.7-2-5.9-2.3c-0.1,0-0.2,0-0.4-0.1
					c-2.2-0.3-6.7-1-11.4-3.2c-7.2-3.2-14.7-9.7-15.1-22.3c-0.2-5.7,2-11.6,5.9-16.8C42.5,42.9,50.2,37.4,59.5,34.5z"/>
			</g>
			
				<linearGradient id="SVGID_00000124163912341245164510000003590413647622656932_" gradientUnits="userSpaceOnUse" x1="53.2586" y1="221.0678" x2="151.6841" y2="-47.7409" gradientTransform="matrix(1 0 0 -1 0 251.6377)">
				<stop  offset="0" style="stop-color:#FAE1D6"/>
				<stop  offset="0" style="stop-color:#F7CDBB"/>
				<stop  offset="0.5" style="stop-color:#DF2328"/>
				<stop  offset="1" style="stop-color:#86191A"/>
			</linearGradient>
			<path style="fill:url(#SVGID_00000124163912341245164510000003590413647622656932_);" d="M144.2,203.9c0-9.3-7.6-16.9-16.9-16.9
				c-0.5,0-1,0-1.4,0.1c-2.8-0.2-5.5-0.7-7.4-2.9c-1.8-2-3.2-4.8-4.4-9c-3-11.1-3.3-34.1-6.3-70.7c-2.4-30.2-24-44.3-41.1-44.5
				c-3.9-0.1-7.6,0.5-10.7,1.9c2.2-0.9,4.6-1.4,7.2-1.4c13.4-0.2,15.9,9.7,15.9,12.1c0,0-0.1,41.1,0,70.9c0,10.2,0,23.1,0,28.2
				c0,13.7,3,23.5,11.8,33.9c8.7,10.2,22.4,16.1,35.4,15.3c0.5,0,1.1-0.1,1.6-0.2C137,220.5,144.2,213,144.2,203.9z"/>
		</g>
	</g>
	<line class="st6" x1="336" y1="12.1" x2="336" y2="239"/>
	<g>
		<path class="st7" d="M419.3,126.1c0,0-21,1.4-21-10.1c0-11.2,14.9-10.1,16.3-10.1c18.1,0,30.8,9.8,30.8,9.8l0-23.5l-5,4.7
			c0,0-17.4-5-27.2-5c-9.8,0-34.4,4.7-34.4,27.1c0,22.5,29,21.7,31.1,21.7c2.2,0,19.5-1.1,19.9,10.1c0.4,10.1-12.7,10.7-18.5,10.5
			c-21.4-0.7-31.1-13.8-31.1-13.8l0,27.6l6.2-5.5c0,0,7.6,6.5,26.4,6.5c18.8,0,37-6.9,37-27.2C449.7,126.5,419.3,126.1,419.3,126.1
			L419.3,126.1z"/>
		<polygon class="st7" points="502.9,101 508,94.8 479.7,94.8 484.4,100.2 484.5,167.2 477.9,173 508.4,173 502.9,166.8 502.9,101 
					"/>
		<polygon class="st7" points="625.8,94.8 597.6,94.8 603.4,99.5 603.3,142.7 565.8,94.7 540.3,94.7 543.5,97.9 543.5,166.9 
			536.2,173 565.6,173.1 561.3,167.6 561.3,118.5 600.7,173.1 624.2,173.2 620.3,168.1 620.4,99.9 625.8,94.8 		"/>
		<path class="st7" d="M713.6,139.7l0,10.5c0,0-2.9,10.8-17,10.8c-14.1,0-26.1-6.5-26.1-28.2c0-21.7,17.7-26.4,25-26.4
			c18.4,0,29.3,12,29.3,12l0-23.9l-4,4c0,0-10.5-5.8-23.9-5.8c-13.4,0-43.1,4-43.1,42c0,38,35.8,40.6,42,40.6
			c25.7,0,34.1-15.2,34.1-15.2l0-19.5l5.4-6.5l-27.1,0L713.6,139.7L713.6,139.7z"/>
		<polygon class="st7" points="786.7,158.4 786.6,140.4 817.5,140.4 823.7,145.8 823.7,120.3 817.9,126 786.7,126 786.6,109.1 
			823,109.1 829.4,115.6 829.4,94.7 764.4,94.7 768.7,99.1 768.7,167.4 763.3,173.1 832.7,173.1 832.7,151.5 825.8,158.4 
			786.7,158.4 		"/>
		<path class="st7" d="M944.6,173.2l-7.2-5.1l-16.3-24.6c7.4-2.5,17-8.3,17-22.1c0-25.3-23.5-26.8-23.5-26.8l-54,0l6.2,6.2l0,67
			l-4,5.4l27.2,0l-4-6.1l0-21.8l14.7,0l15.7,23.2l-3.2,4.7L944.6,173.2L944.6,173.2z M910.2,130.8l-24.6,0l0-21l23.5,0
			c0,0,10.1-0.7,10.5,10.2C920,130.8,910.2,130.8,910.2,130.8L910.2,130.8z"/>
		<path class="st7" d="M949,91c-4.5,0-8,3.6-8,8c0,4.4,3.5,8,8,7.9c4.5,0,8-3.6,8-8C957,94.5,953.4,91,949,91L949,91z M949.1,105.6
			c-3.7,0-6.7-2.9-6.7-6.6c0-3.8,3-6.7,6.7-6.7c3.6,0,6.7,2.9,6.7,6.7C955.7,102.7,952.7,105.6,949.1,105.6L949.1,105.6z"/>
		<path class="st7" d="M952.8,96.9c0-1.9-1.5-2.4-3.1-2.4l-3.7,0l0,9l1.3,0l0-4.2l1.7,0l2.3,4.1l1.5,0l-2.3-4.1
			C951.6,99.3,952.8,98.6,952.8,96.9L952.8,96.9z M948.6,98.1l-1.4,0l0-2.2l2.2,0c1.1,0,2,0.1,2.1,1.2
			C951.5,98.2,949.8,98,948.6,98.1L948.6,98.1z"/>
	</g>
</g>
</svg>
